<svg width="32" height="27" viewBox="0 0 32 27" fill="none" xmlns="http://www.w3.org/2000/svg">
<path d="M31.9977 0.964079C31.9977 0.708389 31.8773 0.463172 31.6631 0.282372C31.4488 0.101572 31.1582 0 30.8552 0H29.8543C28.193 0 27.2378 0.912019 26.6848 1.82211C26.3078 2.4449 26.0359 3.2046 25.8096 3.86403H2.28443C1.93134 3.86412 1.58309 3.93325 1.26698 4.06599C0.950876 4.19874 0.675526 4.39148 0.462542 4.62911C0.249556 4.86674 0.104731 5.14278 0.0394268 5.43557C-0.0258789 5.72837 -0.00988388 6.02995 0.0861588 6.31665L3.50468 16.4877C3.77661 17.2946 4.35299 18.0047 5.1464 18.5103C5.93981 19.0159 6.90699 19.2894 7.90123 19.2893H19.5073C20.5098 19.2896 21.4847 19.0117 22.2816 18.4985C23.0786 17.9853 23.6534 17.2652 23.9176 16.4491L25.3846 11.9083C25.393 11.888 25.4006 11.8674 25.4075 11.8466L27.7634 5.10383L27.9919 4.45405C28.2204 3.7869 28.4215 3.19689 28.7232 2.70135C29.0865 2.10362 29.4201 1.93009 29.8566 1.93009H30.8574C31.1605 1.93009 31.4511 1.82851 31.6654 1.64771C31.8796 1.46691 32 1.2217 32 0.966007M23.2046 11.326L21.7124 15.9459C21.5801 16.3537 21.2926 16.7135 20.8942 16.97C20.4957 17.2264 20.0084 17.3652 19.5073 17.365H7.89895C7.40207 17.3646 6.91889 17.2275 6.52263 16.9745C6.12636 16.7216 5.83861 16.3666 5.70296 15.9632L2.28443 5.79219H25.1355L23.2046 11.326ZM15.9951 24.1078C15.9951 24.8748 16.3562 25.6105 16.999 26.1529C17.6418 26.6953 18.5137 27 19.4228 27C20.3318 27 21.2037 26.6953 21.8465 26.1529C22.4893 25.6105 22.8504 24.8748 22.8504 24.1078C22.8504 23.3407 22.4893 22.605 21.8465 22.0626C21.2037 21.5202 20.3318 21.2155 19.4228 21.2155C18.5137 21.2155 17.6418 21.5202 16.999 22.0626C16.3562 22.605 15.9951 23.3407 15.9951 24.1078ZM18.2802 24.1078C18.2802 23.8521 18.4006 23.6069 18.6148 23.4261C18.8291 23.2453 19.1197 23.1437 19.4228 23.1437C19.7258 23.1437 20.0164 23.2453 20.2307 23.4261C20.4449 23.6069 20.5653 23.8521 20.5653 24.1078C20.5653 24.3634 20.4449 24.6087 20.2307 24.7895C20.0164 24.9703 19.7258 25.0718 19.4228 25.0718C19.1197 25.0718 18.8291 24.9703 18.6148 24.7895C18.4006 24.6087 18.2802 24.3634 18.2802 24.1078ZM4.56954 24.1078C4.56954 24.8748 4.93067 25.6105 5.57348 26.1529C6.21629 26.6953 7.08813 27 7.99721 27C8.90628 27 9.77812 26.6953 10.4209 26.1529C11.0637 25.6105 11.4249 24.8748 11.4249 24.1078C11.4249 23.3407 11.0637 22.605 10.4209 22.0626C9.77812 21.5202 8.90628 21.2155 7.99721 21.2155C7.08813 21.2155 6.21629 21.5202 5.57348 22.0626C4.93067 22.605 4.56954 23.3407 4.56954 24.1078ZM6.85465 24.1078C6.85465 23.8521 6.97503 23.6069 7.1893 23.4261C7.40357 23.2453 7.69418 23.1437 7.99721 23.1437C8.30023 23.1437 8.59085 23.2453 8.80512 23.4261C9.01939 23.6069 9.13976 23.8521 9.13976 24.1078C9.13976 24.3634 9.01939 24.6087 8.80512 24.7895C8.59085 24.9703 8.30023 25.0718 7.99721 25.0718C7.69418 25.0718 7.40357 24.9703 7.1893 24.7895C6.97503 24.6087 6.85465 24.3634 6.85465 24.1078Z" fill="white"/>
</svg>
