<svg width="72" height="65" viewBox="0 0 72 65" fill="none" xmlns="http://www.w3.org/2000/svg">
<path d="M0.0027448 0.62002C-0.0625204 0.380714 1.03611 0.261061 3.29864 0.261061C5.80047 0.261061 7.08402 0.467735 7.14929 0.881081L8.74829 14.6194L12.2073 0.717918C12.3161 0.391592 13.1646 0.228429 14.7527 0.228429C16.3408 0.228429 17.1893 0.380715 17.298 0.685286L20.6918 14.6847L22.5845 0.815817C22.628 0.57651 23.1284 0.413346 24.0856 0.326326C25.0428 0.239307 25.8151 0.195797 26.4025 0.195797C28.6868 0.195797 29.7963 0.348083 29.7311 0.652654L25.7825 22.2881C25.6955 22.6144 25.0755 22.8537 23.9225 23.006C22.7694 23.1583 21.834 23.2344 21.116 23.2344C18.4184 23.2344 17.0043 22.9299 16.8738 22.3207L14.6548 13.3467L12.24 22.2881C12.153 22.6797 11.3915 22.9625 9.95569 23.1365C9.21602 23.2018 8.47635 23.2344 7.73668 23.2344L5.64819 23.1365C4.21235 22.9842 3.45093 22.7123 3.3639 22.3207L0.0027448 0.62002Z" fill="white"/>
<path d="M41.1066 23.4629C38.0609 23.4629 35.5699 22.4621 33.6337 20.4607C31.7193 18.4592 30.762 15.544 30.762 11.7151C30.762 7.86446 31.7301 4.94928 33.6663 2.96957C35.6243 0.989856 38.137 0 41.2045 0C44.2937 0 46.7847 0.978979 48.6774 2.93694C50.57 4.87314 51.5164 7.82095 51.5164 11.7804C51.5164 15.718 50.5483 18.655 48.6121 20.5912C46.6759 22.5056 44.1741 23.4629 41.1066 23.4629ZM41.1392 6.26546C40.095 6.26546 39.2139 6.74408 38.496 7.7013C37.7998 8.65852 37.4517 10.0073 37.4517 11.7477C37.4517 13.4664 37.7889 14.7935 38.4633 15.7289C39.1377 16.6426 40.0188 17.0995 41.1066 17.0995C42.2161 17.0995 43.1081 16.6318 43.7825 15.6963C44.4786 14.7608 44.8267 13.4229 44.8267 11.6825C44.8267 9.94207 44.4677 8.60413 43.7498 7.66867C43.0537 6.7332 42.1835 6.26546 41.1392 6.26546Z" fill="white"/>
<path d="M23.7919 46.902C21.8557 46.902 20.8876 46.6844 20.8876 46.2493L20.2023 33.1636L16.2212 46.4125C16.1341 46.6735 15.3945 46.8041 14.0021 46.8041C12.6098 46.8041 11.8919 46.6844 11.8484 46.4451L7.73668 33.0331L7.27982 46.0535C7.25806 46.3799 6.84472 46.6083 6.03978 46.7388C5.23484 46.8476 4.56043 46.902 4.01656 46.902C3.49444 46.902 2.98319 46.8693 2.48282 46.8041C1.43858 46.6518 0.927336 46.3799 0.949091 45.9883L1.69964 24.7771C1.69964 24.2549 3.0267 23.9939 5.68082 23.9939C6.464 23.9939 7.42123 24.0591 8.55249 24.1897C9.68375 24.2984 10.3147 24.5269 10.4452 24.875L14.1 35.1542L17.298 24.8423C17.4938 24.2767 18.9949 23.9939 21.8013 23.9939C22.6063 23.9939 23.5635 24.0591 24.673 24.1897C25.8043 24.2984 26.3699 24.5051 26.3699 24.8097L27.3162 46.2167C27.3162 46.456 26.892 46.63 26.0436 46.7388C25.1951 46.8476 24.4446 46.902 23.7919 46.902Z" fill="white"/>
<path d="M45.8916 46.9346C43.9989 46.9346 42.9764 46.63 42.8241 46.0209L41.7473 41.8113H36.5587L35.6123 45.8577C35.4818 46.5321 34.4375 46.8693 32.4796 46.8693C31.4354 46.8693 30.663 46.815 30.1627 46.7062C29.6623 46.5756 29.4121 46.4778 29.4121 46.4125L35.1881 24.3202C35.1881 24.1462 36.6783 24.0591 39.6588 24.0591C42.6392 24.0591 44.1294 24.1462 44.1294 24.3202L49.7749 46.4451C49.7749 46.5974 49.2745 46.7171 48.2738 46.8041C47.2731 46.8911 46.479 46.9346 45.8916 46.9346ZM37.3745 37.6669H40.8009L39.3324 30.912H39.1366L37.3745 37.6669Z" fill="white"/>
<path d="M69.8202 46.1514C69.8202 46.6083 68.7977 46.8367 66.7528 46.8367C64.7078 46.8367 63.5983 46.6735 63.4242 46.3472L57.9746 36.1658V46.3146C57.9746 46.7062 56.963 46.902 54.9398 46.902C52.9383 46.902 51.9376 46.7062 51.9376 46.3146V24.4834C51.9376 24.157 52.7969 23.9939 54.5155 23.9939C55.1899 23.9939 55.9731 24.0591 56.8651 24.1897C57.7788 24.2984 58.3335 24.516 58.5293 24.8423L63.7506 34.8932V24.6465C63.7506 24.2332 64.7622 24.0265 66.7854 24.0265C68.8086 24.0265 69.8202 24.2332 69.8202 24.6465V46.1514Z" fill="white"/>
<path d="M6.5233 56.5783C6.46009 56.0446 6.20375 55.6302 5.75426 55.3352C5.30478 55.0402 4.75345 54.8927 4.1003 54.8927C3.62272 54.8927 3.20484 54.97 2.84665 55.1245C2.49198 55.279 2.21457 55.4915 2.0144 55.7619C1.81775 56.0323 1.71943 56.3395 1.71943 56.6837C1.71943 56.9716 1.78791 57.2192 1.92486 57.4264C2.06532 57.63 2.24441 57.8004 2.46213 57.9373C2.67985 58.0707 2.90811 58.1814 3.1469 58.2692C3.38569 58.3534 3.60516 58.4219 3.80532 58.4746L4.90094 58.7696C5.18187 58.8433 5.4944 58.9451 5.83854 59.0751C6.18619 59.205 6.51803 59.3823 6.83408 59.6071C7.15363 59.8283 7.417 60.1127 7.62419 60.4604C7.83137 60.808 7.93497 61.2347 7.93497 61.7404C7.93497 62.3233 7.78221 62.85 7.4767 63.3206C7.1747 63.7911 6.73224 64.1651 6.14932 64.4426C5.5699 64.72 4.86583 64.8587 4.03709 64.8587C3.26453 64.8587 2.59557 64.734 2.03021 64.4847C1.46835 64.2354 1.02589 63.8877 0.702821 63.4417C0.383265 62.9958 0.202418 62.4778 0.160278 61.8879H1.50873C1.54385 62.2952 1.6808 62.6323 1.91959 62.8992C2.16189 63.1626 2.4674 63.3592 2.83612 63.4891C3.20835 63.6156 3.60867 63.6788 4.03709 63.6788C4.53573 63.6788 4.98346 63.598 5.38028 63.4365C5.77709 63.2714 6.09137 63.0432 6.32314 62.7517C6.55491 62.4567 6.67079 62.1126 6.67079 61.7193C6.67079 61.3611 6.57071 61.0697 6.37055 60.8449C6.17039 60.6202 5.90702 60.4376 5.58044 60.2971C5.25386 60.1566 4.90094 60.0337 4.52169 59.9284L3.1943 59.5491C2.35152 59.3068 1.68431 58.9609 1.19269 58.5115C0.701065 58.062 0.455253 57.4738 0.455253 56.7469C0.455253 56.1429 0.618542 55.6161 0.945121 55.1667C1.27521 54.7137 1.71767 54.3625 2.27251 54.1132C2.83085 53.8603 3.45416 53.7339 4.14244 53.7339C4.83773 53.7339 5.45577 53.8586 5.99656 54.1079C6.53735 54.3537 6.96576 54.6908 7.28181 55.1192C7.60136 55.5477 7.76992 56.034 7.78748 56.5783H6.5233Z" fill="white"/>
<path d="M16.7576 64.669V53.8814H20.4026C21.2489 53.8814 21.9407 54.0342 22.478 54.3397C23.0188 54.6417 23.4191 55.0508 23.679 55.567C23.9388 56.0832 24.0688 56.6591 24.0688 57.2947C24.0688 57.9303 23.9388 58.5079 23.679 59.0277C23.4226 59.5474 23.0258 59.9617 22.4885 60.2708C21.9513 60.5763 21.263 60.729 20.4237 60.729H17.8111V59.5702H20.3816C20.961 59.5702 21.4263 59.4701 21.7774 59.27C22.1286 59.0698 22.3832 58.7994 22.5412 58.4588C22.7027 58.1146 22.7835 57.7266 22.7835 57.2947C22.7835 56.8628 22.7027 56.4765 22.5412 56.1359C22.3832 55.7952 22.1268 55.5283 21.7722 55.3352C21.4175 55.1386 20.9469 55.0402 20.3605 55.0402H18.0639V64.669H16.7576Z" fill="white"/>
<path d="M32.1895 64.669H30.82L34.7811 53.8814H36.1295L40.0906 64.669H38.7211L35.4974 55.588H35.4132L32.1895 64.669ZM32.6952 60.4551H38.2154V61.614H32.6952V60.4551Z" fill="white"/>
<path d="M56.6195 57.2525H55.3132C55.2359 56.8768 55.1007 56.5467 54.9076 56.2623C54.7179 55.9778 54.4862 55.739 54.2123 55.5459C53.9419 55.3493 53.6416 55.2018 53.3115 55.1034C52.9815 55.0051 52.6373 54.956 52.2791 54.956C51.626 54.956 51.0343 55.121 50.504 55.4511C49.9773 55.7812 49.5576 56.2675 49.2451 56.9102C48.9361 57.5528 48.7816 58.3411 48.7816 59.2752C48.7816 60.2093 48.9361 60.9977 49.2451 61.6403C49.5576 62.2829 49.9773 62.7693 50.504 63.0994C51.0343 63.4295 51.626 63.5945 52.2791 63.5945C52.6373 63.5945 52.9815 63.5453 53.3115 63.447C53.6416 63.3487 53.9419 63.203 54.2123 63.0098C54.4862 62.8132 54.7179 62.5726 54.9076 62.2882C55.1007 62.0002 55.2359 61.6701 55.3132 61.2979H56.6195C56.5211 61.8492 56.3421 62.3426 56.0822 62.7781C55.8223 63.2135 55.4993 63.584 55.113 63.8895C54.7267 64.1915 54.293 64.4215 53.8119 64.5795C53.3344 64.7375 52.8234 64.8165 52.2791 64.8165C51.3591 64.8165 50.5409 64.5918 49.8245 64.1423C49.1082 63.6928 48.5445 63.0537 48.1337 62.225C47.7228 61.3962 47.5174 60.413 47.5174 59.2752C47.5174 58.1375 47.7228 57.1542 48.1337 56.3255C48.5445 55.4967 49.1082 54.8576 49.8245 54.4081C50.5409 53.9587 51.3591 53.7339 52.2791 53.7339C52.8234 53.7339 53.3344 53.8129 53.8119 53.971C54.293 54.129 54.7267 54.3607 55.113 54.6662C55.4993 54.9682 55.8223 55.337 56.0822 55.7724C56.3421 56.2043 56.5211 56.6977 56.6195 57.2525Z" fill="white"/>
<path d="M65.4052 64.669V53.8814H71.9157V55.0402H66.7116V58.6853H71.5786V59.8441H66.7116V63.5102H72V64.669H65.4052Z" fill="white"/>
</svg>
